Coordinates
version=1
nRows=8
nColumns=40
inDegrees=yes

Units are S.I. units (second, meters, Newtons, ...)
Angles are in degrees.

endheader
time	pelvis_tilt	pelvis_list	pelvis_rotation	pelvis_tx	pelvis_ty	pelvis_tz	hip_flexion_r	hip_adduction_r	hip_rotation_r	knee_angle_r	knee_angle_r_beta	ankle_angle_r	subtalar_angle_r	mtp_angle_r	hip_flexion_l	hip_adduction_l	hip_rotation_l	knee_angle_l	knee_angle_l_beta	ankle_angle_l	subtalar_angle_l	mtp_angle_l	lumbar_extension	lumbar_bending	lumbar_rotation	arm_flex_r	arm_add_r	arm_rot_r	elbow_flex_r	pro_sup_r	wrist_flex_r	wrist_dev_r	arm_flex_l	arm_add_l	arm_rot_l	elbow_flex_l	pro_sup_l	wrist_flex_l	wrist_dev_l
      0.40000000	    -11.09832699	     -4.02181745	      3.76518703	     -0.13444370	      0.95238075	      0.02921446	     41.51234805	     -1.16383530	    -17.49961135	    -21.01071628	     -0.36670618	      0.07495937	     -3.36279591	     14.65867498	    -11.32853678	      6.89351788	     12.00854737	    -34.49962793	     -0.60213210	    -26.49801558	     18.80443345	     17.50734273	      2.13685317	      2.05394322	    -23.07835115	    -48.82260355	    -24.08501940	    -13.60909542	     97.92660469	     89.95437384	      0.00000000	      0.00000000	     29.76289407	     39.32770633	    -44.84536829	    120.05965114	     89.95437384	      0.00000000	      0.00000000
      0.41000000	     -9.96272699	     -3.81471333	      2.46929190	     -0.09323491	      0.95039096	      0.03215559	     40.10568680	     -0.13730935	    -16.43101008	    -24.76503907	     -0.43223147	      0.18376015	     -4.02754917	     14.02126987	    -10.83435523	      6.49499195	     11.94144975	    -39.81983101	     -0.69498716	    -26.58361122	     19.21392990	     17.29889815	      1.15901387	      2.43690872	    -21.36210099	    -46.94521798	    -22.77436957	    -13.98014355	     97.05230943	     89.95437384	      0.00000000	      0.00000000	     26.19907123	     40.94876866	    -44.36284557	    114.97412003	     89.95437384	      0.00000000	      0.00000000
      0.42000000	     -9.97048070	     -3.87542357	      1.20224677	     -0.05358415	      0.94588568	      0.03487936	     39.73816513	      1.36678586	    -14.25043063	    -28.23346059	     -0.49276685	      0.05657475	     -6.08965768	     15.83978723	     -8.28281892	      6.31740822	     11.59244595	    -46.34198865	     -0.80882028	    -24.23321975	     19.30044228	     22.18652129	      1.40082540	      3.11742381	    -19.78324983	    -44.82467019	    -21.74671633	    -14.08097541	     96.13599126	     89.95437384	      0.00000000	      0.00000000	     22.33354894	     42.10493807	    -43.38512924	    109.27994812	     89.95437384	      0.00000000	      0.00000000
      0.43000000	     -9.10663636	     -3.92590600	      0.12400411	     -0.01366876	      0.94188749	      0.03690688	     37.87467567	      2.65738717	    -12.21323618	    -30.82568269	     -0.53800966	     -0.17765967	     -5.02601539	     15.52023416	     -6.66473547	      6.04562336	     11.13219240	    -52.25424448	     -0.91200861	    -23.39922357	     19.34457369	     21.36846269	      0.52418800	      3.89594694	    -18.28944829	    -42.37751830	    -20.85815923	    -13.99659099	     95.50301105	     89.95437384	      0.00000000	      0.00000000	     18.80924126	     43.02777047	    -42.19475914	    103.13418255	     89.95437384	      0.00000000	      0.00000000
      0.44000000	     -8.12573037	     -4.30795240	     -0.93070850	      0.02641205	      0.93704182	      0.03959390	     35.19071636	      4.15731000	    -10.44322287	    -31.53295999	     -0.55035397	     -1.49522227	     -3.18783900	     16.10304935	     -5.00765312	      6.28744513	     10.95319913	    -58.12266559	     -1.01443188	    -21.61891697	     19.33059935	     20.91991238	     -0.54375991	      4.96597919	    -16.77641932	    -39.78430779	    -19.99388645	    -13.78139942	     95.14466810	     89.95437384	      0.00000000	      0.00000000	     15.58076173	     43.86962160	    -41.13377147	     96.59842431	     89.95437384	      0.00000000	      0.00000000
      0.45000000	     -7.42013038	     -4.66250912	     -1.95606508	      0.06562131	      0.93065662	      0.04230260	     32.31751316	      5.35285441	    -10.21487784	    -31.42167087	     -0.54841161	      1.77582653	     -3.43382697	     15.29090183	     -2.74349093	      6.70208815	     11.06252277	    -64.12056650	     -1.11911500	    -18.68122797	     19.29482751	     20.35790298	     -1.44655442	      5.96783155	    -15.22991651	    -37.12700703	    -19.23973135	    -13.33036302	     95.24880204	     89.95437384	      0.00000000	      0.00000000	     12.63150473	     44.62268208	    -40.02200518	     89.85820976	     89.95437384	      0.00000000	      0.00000000
      0.46000000	     -6.78472195	     -4.67455958	     -3.26026976	      0.10425331	      0.92367764	      0.04498710	     29.51774082	      6.47312961	     -9.61377165	    -32.82193689	     -0.57285087	      6.15169911	     -4.98133138	     13.28768503	     -0.31355846	      6.85934132	     11.72515008	    -69.68540332	     -1.21623973	    -15.32675186	     19.29492940	     19.20962614	     -2.38766280	      6.56603528	    -13.15389801	    -34.42385185	    -18.39467877	    -12.84041248	     95.72888822	     89.95437384	      0.00000000	      0.00000000	     10.31003907	     45.29092265	    -39.31795668	     83.25849215	     89.95437384	      0.00000000	      0.00000000
      0.47000000	     -7.18899796	     -4.62926656	     -4.97015171	      0.14015325	      0.91561885	      0.04797289	     29.27818785	      7.60795724	     -7.54260658	    -36.20833060	     -0.63195459	      8.53981797	     -8.25648124	     10.21267979	      3.79552553	      7.49338121	     13.08670517	    -75.61370081	     -1.31970804	    -10.94391724	     19.26513575	     18.62336416	     -2.54045678	      7.11073463	    -10.64457856	    -31.36918978	    -17.71528459	    -11.99339526	     96.41151100	     89.95437384	      0.00000000	      0.00000000	      8.11178421	     45.96466454	    -38.35647948	     77.39952804	     89.95437384	      0.00000000	      0.00000000
